<?xml version="1.0" encoding="UTF-8" standalone="no"?>
<svg
   xmlns:dc="http://purl.org/dc/elements/1.1/"
   xmlns:cc="http://creativecommons.org/ns#"
   xmlns:rdf="http://www.w3.org/1999/02/22-rdf-syntax-ns#"
   xmlns:svg="http://www.w3.org/2000/svg"
   xmlns="http://www.w3.org/2000/svg"
   xmlns:sodipodi="http://sodipodi.sourceforge.net/DTD/sodipodi-0.dtd"
   xmlns:inkscape="http://www.inkscape.org/namespaces/inkscape"
   version="1.1"
   id="svg2"
   xml:space="preserve"
   width="253.41333"
   height="121.50667"
   viewBox="0 0 253.41333 121.50667"
   sodipodi:docname="EURECOM_logo_quadri.eps"><metadata
     id="metadata8"><rdf:RDF><cc:Work
         rdf:about=""><dc:format>image/svg+xml</dc:format><dc:type
           rdf:resource="http://purl.org/dc/dcmitype/StillImage" /></cc:Work></rdf:RDF></metadata><defs
     id="defs6" /><sodipodi:namedview
     pagecolor="#ffffff"
     bordercolor="#666666"
     borderopacity="1"
     objecttolerance="10"
     gridtolerance="10"
     guidetolerance="10"
     inkscape:pageopacity="0"
     inkscape:pageshadow="2"
     inkscape:window-width="640"
     inkscape:window-height="480"
     id="namedview4" /><g
     id="g10"
     inkscape:groupmode="layer"
     inkscape:label="ink_ext_XXXXXX"
     transform="matrix(1.3333333,0,0,-1.3333333,0,121.50667)"><g
       id="g12"
       transform="scale(0.1)"><path
         d="M 49.4648,384.148 H 210.621 l -5.238,-26.21 H 75.3359 L 59.6133,283.586 H 180.813 L 175.57,257.371 H 54.0469 L 37.0117,176.477 H 168.691 l -5.894,-26.211 H 0 l 49.4648,233.882"
         style="fill:#231f20;fill-opacity:1;fill-rule:nonzero;stroke:none"
         id="path14" /><path
         d="m 451.676,245.793 c -3.879,-17.797 -7.758,-35.234 -11.637,-44.301 -15.519,-38.14 -50.754,-53.66 -89.867,-53.66 -67.567,0 -96.981,36.199 -83.727,100.535 l 28.77,135.781 H 325.93 L 295.535,240.605 c -10.34,-44.597 10.024,-66.906 54.637,-66.906 50.43,0 61.422,28.762 70.473,72.094 l 29.089,138.355 h 30.715 L 451.676,245.793"
         style="fill:#231f20;fill-opacity:1;fill-rule:nonzero;stroke:none"
         id="path16" /><path
         d="m 593.707,276.379 h 70.098 c 49.133,0 57.648,29.473 57.648,46.187 0,29.145 -22.601,35.372 -45.855,35.372 H 611.07 Z m -8.187,107.769 h 90.078 c 39.632,0 76.976,-13.433 76.976,-59.628 0,-31.114 -21.621,-58.297 -52.738,-62.887 v -0.649 c 20.309,-6.226 26.203,-27.183 23.91,-50.781 -1.308,-21.285 -9.172,-41.265 0.332,-59.937 h -32.433 c -2.946,8.511 -3.93,26.211 0.656,50.117 9.828,55.68 -21.617,49.785 -35.051,49.785 h -69.109 l -20.969,-99.902 h -31.117 l 49.465,233.882"
         style="fill:#231f20;fill-opacity:1;fill-rule:nonzero;stroke:none"
         id="path18" /><path
         d="m 854.758,384.148 h 161.152 l -5.23,-26.21 H 880.637 l -15.731,-74.352 h 121.203 l -5.254,-26.215 H 859.34 L 842.309,176.477 H 973.98 l -5.898,-26.211 H 805.293 l 49.465,233.882"
         style="fill:#231f20;fill-opacity:1;fill-rule:nonzero;stroke:none"
         id="path20" /><path
         d="m 1264.05,228.953 c -11.32,-50.262 -43.99,-81.055 -99.28,-81.055 -61.27,0 -96.13,36.438 -96.13,98.325 0,72.566 46.49,136.668 123.14,136.668 48.38,0 85.45,-25.75 85.45,-77.61 h -29.83 c 0,35.199 -22.95,52.473 -55.62,52.473 -62.51,0 -93.3,-57.488 -93.3,-111.531 0,-43.34 21.37,-73.188 66.29,-73.188 36.75,0 59.68,21.035 69.41,55.918 h 29.87"
         style="fill:#231f20;fill-opacity:1;fill-rule:nonzero;stroke:none"
         id="path22" /><path
         d="m 1434.99,173.035 c 59.37,0 90.79,57.168 90.79,110.578 0,41.477 -22.31,74.141 -63.76,74.141 -62.53,0 -93.3,-57.488 -93.3,-111.531 0,-43.34 21.34,-73.188 66.27,-73.188 z m 27.03,209.856 c 58.1,0 93.6,-43.661 93.6,-99.278 0,-70.383 -45.86,-135.715 -120.63,-135.715 -61.25,0 -96.14,36.438 -96.14,98.325 0,72.566 46.5,136.668 123.17,136.668"
         style="fill:#231f20;fill-opacity:1;fill-rule:nonzero;stroke:none"
         id="path24" /><path
         d="m 1666.73,382.891 h 43.25 l 31.11,-201.133 h 0.64 l 115.65,201.133 h 43.22 l -49.45,-233.887 h -29.81 l 47.82,204.726 h -0.65 L 1749.27,149.004 h -29.8 L 1689,353.73 h -0.65 L 1647.4,149.004 h -29.81 l 49.14,233.887"
         style="fill:#231f20;fill-opacity:1;fill-rule:nonzero;stroke:none"
         id="path26" /><path
         d="m 42.8477,55.7422 c -0.0782,10 -5.3594,13.2031 -15.1172,13.2031 -7.043,0 -14.5625,-3.2812 -14.5625,-11.4258 0,-6.0937 4.8008,-8.0078 9.6015,-9.4531 l 6.0782,-1.8359 c 7.8437,-2.4024 15.3632,-4.961 15.3632,-14.5508 0,-5.6055 -3.5234,-17.6172 -22.082,-17.6172 -12.79687,0 -22.16015,6.1719 -21.519525,20 H 6.05078 C 5.48828,22.9492 12.1289,18.7109 22.5313,18.7109 c 7.4375,0 16.2382,3.6719 16.2382,12.2461 0,8.0664 -7.8437,9.5118 -14.1601,11.3477 l -5.6016,1.6797 C 12.3672,45.918 7.73047,49.9023 7.73047,57.2656 c 0,11.4453 10.07813,16.3282 20.23833,16.3282 11.6015,0 20.9609,-4.6485 20.3203,-17.8516 h -5.4414"
         style="fill:#4f4c4c;fill-opacity:1;fill-rule:nonzero;stroke:none"
         id="path28" /><path
         d="m 158.277,40.5469 c 0,7.6758 -4.082,12.9687 -12.16,12.9687 -11.039,0 -17.117,-12.0898 -17.117,-21.7578 0,-8.0078 3.996,-13.4375 12.395,-13.4375 11.043,0 16.882,12.6367 16.882,22.2266 z m 5.039,1.0351 c 0,-13.9062 -7.597,-27.5195 -22.882,-27.5195 -10.637,0 -16.481,6.8945 -16.481,17.207 0,13.5157 8.32,26.4844 23.043,26.4844 9.602,0 16.32,-5.9961 16.32,-16.1719"
         style="fill:#4f4c4c;fill-opacity:1;fill-rule:nonzero;stroke:none"
         id="path30" /><path
         d="m 260.797,30.2344 c 0,-7.2071 4.16,-11.9141 11.516,-11.9141 11.601,0 17.605,12.793 17.605,22.8711 0,7.0313 -3.523,12.3242 -11.125,12.3242 -11.598,0 -17.996,-13.0468 -17.996,-23.2812 z m 0.32,26.3086 h 4.559 l -1.598,-7.4414 h 0.156 c 3.52,5.4492 7.762,8.6523 15.043,8.6523 10.559,0 15.68,-6.7969 15.68,-16.875 0,-12.6562 -8.723,-26.8164 -22.559,-26.8164 -6.48,0 -12.082,2.7344 -13.203,9.4531 h -0.156 L 253.992,0 h -5.039 l 12.164,56.543"
         style="fill:#4f4c4c;fill-opacity:1;fill-rule:nonzero;stroke:none"
         id="path32" /><path
         d="m 402.91,72.3828 h 5.039 L 402.91,49.0234 h 0.16 c 2.883,4.8829 8.321,8.7305 14.481,8.7305 7.199,0 12.476,-3.2031 12.476,-11.1328 0,-1.2695 -0.238,-2.9492 -0.636,-4.8633 l -5.68,-26.4844 h -5.039 l 5.758,26.6407 c 0.32,1.2695 0.558,2.7929 0.558,4.1601 0,5.4297 -4.16,7.4414 -8.636,7.4414 -7.282,0 -13.918,-6.5625 -16.161,-17.0508 l -4.562,-21.1914 h -5.039 l 12.32,57.1094"
         style="fill:#4f4c4c;fill-opacity:1;fill-rule:nonzero;stroke:none"
         id="path34" /><path
         d="m 537.988,72.3828 h 5.039 l -1.761,-8.0664 h -5.039 z M 534.547,56.543 h 5.039 l -8.879,-41.2696 h -5.043 l 8.883,41.2696"
         style="fill:#4f4c4c;fill-opacity:1;fill-rule:nonzero;stroke:none"
         id="path36" /><path
         d="m 679.309,37.3438 -0.164,0.1757 c -1.602,-2.0117 -6.563,-2.1679 -9.122,-2.3242 -6.16,-0.4883 -16.316,-0.8008 -16.316,-9.4531 0,-5.2734 4.398,-7.4219 9.199,-7.4219 8.078,0 13.199,4.8633 14.797,12.0703 z m -24.961,6.8945 c 1.355,9.3555 8.558,13.5156 17.433,13.5156 5.602,0 14.324,-1.9141 14.324,-9.1992 0,-4.0039 -1.757,-10.2344 -2.558,-13.9258 -1.844,-9.2773 -2.723,-11.4453 -2.723,-13.9258 0,-1.4258 1.442,-1.6797 2.637,-1.6797 0.723,0 1.285,0.0782 2.004,0.1758 l -0.719,-4.0039 c -1.125,-0.2539 -2.805,-0.4101 -4.16,-0.4101 -2.805,0 -4.32,1.7578 -4.398,4.4921 0,0.7227 0.078,1.504 0.156,2.2266 l -0.156,0.1758 c -2.883,-4.8047 -8.567,-7.6172 -14.325,-7.6172 -7.515,0 -13.203,3.3594 -13.203,11.4453 0,8.7305 6.965,11.5235 14.324,12.8125 5.282,0.7813 9.922,0.3906 13.121,1.1914 3.282,0.8008 4.958,2.6367 4.958,8.086 0,4.8632 -4.875,5.9179 -8.719,5.9179 -6.403,0 -11.918,-2.4023 -12.957,-9.2773 h -5.039"
         style="fill:#4f4c4c;fill-opacity:1;fill-rule:nonzero;stroke:none"
         id="path38" /><path
         d="m 851.098,37.6758 h 22.558 l -4.883,30.0781 h -0.156 z m 15.597,34.707 h 5.922 L 883.02,15.2734 h -5.68 l -2.883,17.7539 H 848.379 L 837.816,15.2734 h -6.078 l 34.957,57.1094"
         style="fill:#4f4c4c;fill-opacity:1;fill-rule:nonzero;stroke:none"
         id="path40" /><path
         d="m 983.793,56.543 h 4.629 l -1.445,-7.5196 h 0.175 c 3.106,4.8829 8.555,8.7305 14.708,8.7305 7.21,0 12.48,-3.2031 12.48,-11.1328 0,-1.2695 -0.23,-2.9492 -0.62,-4.8633 l -5.69,-26.4844 h -5.04 l 5.76,26.6407 c 0.32,1.2695 0.55,2.7929 0.55,4.1601 0,5.4297 -4.16,7.4414 -8.63,7.4414 -7.287,0 -13.928,-6.5625 -16.174,-17.0508 l -4.551,-21.1914 h -5.039 l 8.887,41.2696"
         style="fill:#4f4c4c;fill-opacity:1;fill-rule:nonzero;stroke:none"
         id="path42" /><path
         d="m 1107.18,56.543 h 7.44 l 2.66,12.4804 h 5.04 l -2.66,-12.4804 h 8.25 l -0.81,-4.2383 h -8.39 l -5.69,-26.4649 c -0.39,-1.9335 -0.54,-2.6562 -0.54,-3.9257 0,-1.4453 0.72,-2.8907 2.63,-2.8907 1.99,0 3.93,0.1758 5.92,0.4883 l -0.88,-4.3945 c -1.68,-0.1758 -3.44,-0.332 -5.12,-0.332 -3.77,0 -7.59,0.957 -7.59,5.9179 0,0.8789 0.15,2.4024 0.54,4.2383 l 5.69,27.3633 h -7.44 l 0.95,4.2383"
         style="fill:#4f4c4c;fill-opacity:1;fill-rule:nonzero;stroke:none"
         id="path44" /><path
         d="m 1232.09,72.3828 h 5.04 l -1.75,-8.0664 h -5.04 z m -3.43,-15.8398 h 5.04 l -8.87,-41.2696 h -5.04 l 8.87,41.2696"
         style="fill:#4f4c4c;fill-opacity:1;fill-rule:nonzero;stroke:none"
         id="path46" /><path
         d="m 1340.85,30.2344 c 0,-7.2071 4.16,-11.9141 11.53,-11.9141 11.6,0 17.6,12.793 17.6,22.8711 0,7.0313 -3.52,12.3242 -11.12,12.3242 -11.6,0 -18.01,-13.0468 -18.01,-23.2812 z m 0.32,26.3086 h 4.57 l -1.6,-7.4414 h 0.15 c 3.52,5.4492 7.76,8.6523 15.04,8.6523 10.57,0 15.68,-6.7969 15.68,-16.875 0,-12.6562 -8.71,-26.8164 -22.55,-26.8164 -6.49,0 -12.09,2.7344 -13.21,9.4531 h -0.15 L 1334.06,0 h -5.04 l 12.15,56.543"
         style="fill:#4f4c4c;fill-opacity:1;fill-rule:nonzero;stroke:none"
         id="path48" /><path
         d="m 1501.24,40.5469 c 0,7.6758 -4.09,12.9687 -12.17,12.9687 -11.04,0 -17.11,-12.0898 -17.11,-21.7578 0,-8.0078 3.98,-13.4375 12.38,-13.4375 11.06,0 16.9,12.6367 16.9,22.2266 z m 5.03,1.0351 c 0,-13.9062 -7.59,-27.5195 -22.89,-27.5195 -10.64,0 -16.48,6.8945 -16.48,17.207 0,13.5157 8.32,26.4844 23.05,26.4844 9.61,0 16.32,-5.9961 16.32,-16.1719"
         style="fill:#4f4c4c;fill-opacity:1;fill-rule:nonzero;stroke:none"
         id="path50" /><path
         d="m 1610.48,72.3828 h 5.04 L 1603.2,15.2734 h -5.04 l 12.32,57.1094"
         style="fill:#4f4c4c;fill-opacity:1;fill-rule:nonzero;stroke:none"
         id="path52" /><path
         d="m 1719.73,72.3828 h 5.04 l -1.76,-8.0664 h -5.04 z m -3.44,-15.8398 h 5.04 l -8.88,-41.2696 h -5.04 l 8.88,41.2696"
         style="fill:#4f4c4c;fill-opacity:1;fill-rule:nonzero;stroke:none"
         id="path54" /><path
         d="m 1821.71,28.7109 c -0.07,-8.0078 5.84,-10.3906 11.68,-10.3906 4.5,0 10.41,2.3047 10.41,7.5977 0,5.3515 -5.68,7.0312 -11.11,9.1211 -5.53,2.1484 -11.05,4.6289 -11.05,11.4257 0,8.0079 8.65,11.2891 15.29,11.2891 8.63,0 14.88,-3.7695 14.71,-13.2812 h -5.04 c 0.41,6.3086 -4.01,9.0429 -9.67,9.0429 -4.42,0 -10.26,-1.3672 -10.26,-7.0508 0,-3.8281 4.09,-5.7617 8.74,-7.5976 5.68,-2.2461 13.43,-4.5508 13.43,-12.1484 0,-9.2969 -8.81,-12.6563 -16.64,-12.6563 -7.91,0 -15.99,4.3359 -15.53,14.6484 h 5.04"
         style="fill:#4f4c4c;fill-opacity:1;fill-rule:nonzero;stroke:none"
         id="path56" /><path
         d="M 1149,836.645 H 552.742 l 13.254,74.605 H 1162.28 L 1149,836.645"
         style="fill:#bdbcbc;fill-opacity:1;fill-rule:nonzero;stroke:none"
         id="path58" /><path
         d="M 1360.61,761.609 H 764.375 l 13.27,74.614 h 596.215 l -13.25,-74.614"
         style="fill:#00adef;fill-opacity:1;fill-rule:nonzero;stroke:none"
         id="path60" /><path
         d="M 1122.13,686.559 H 525.895 l 13.246,74.601 h 596.219 l -13.23,-74.601"
         style="fill:#bdbcbc;fill-opacity:1;fill-rule:nonzero;stroke:none"
         id="path62" /><path
         d="M 1330.51,612.258 H 734.27 l 13.246,74.597 h 596.234 l -13.24,-74.597"
         style="fill:#00adef;fill-opacity:1;fill-rule:nonzero;stroke:none"
         id="path64" /><path
         d="M 1092,537.949 H 495.793 l 13.246,74.606 H 1105.27 L 1092,537.949"
         style="fill:#bdbcbc;fill-opacity:1;fill-rule:nonzero;stroke:none"
         id="path66" /><path
         d="M 1306.42,463.902 H 710.188 l 13.234,74.629 h 596.238 l -13.24,-74.629"
         style="fill:#00adef;fill-opacity:1;fill-rule:nonzero;stroke:none"
         id="path68" /></g></g></svg>
